<?xml version="1.0" encoding="utf-8"?><svg xmlns="http://www.w3.org/2000/svg" xmlns:xlink="http://www.w3.org/1999/xlink"><symbol viewBox="0 0 512.076 512.076" id="call" xmlns="http://www.w3.org/2000/svg"><path d="M498.639 395.039l-103.646-69.12c-13.153-8.701-30.784-5.838-40.508 6.579l-30.191 38.818a12.903 12.903 0 01-16.546 3.482l-5.743-3.166c-19.038-10.377-42.726-23.296-90.453-71.04s-60.672-71.45-71.049-90.453l-3.149-5.743a12.92 12.92 0 013.413-16.606l38.792-30.182c12.412-9.725 15.279-27.351 6.588-40.508l-69.12-103.646C108.12.056 90.25-3.966 76.461 4.323L33.12 30.358A61.136 61.136 0 005.242 66.539c-15.607 56.866-3.866 155.008 140.706 299.597 115.004 114.995 200.619 145.92 259.465 145.92a151.181 151.181 0 0040.107-5.239 61.079 61.079 0 0036.181-27.878l26.061-43.315c8.301-13.792 4.281-31.673-9.123-40.585zm-5.581 31.829l-26.001 43.341a44.103 44.103 0 01-26.027 20.173c-52.497 14.413-144.213 2.475-283.008-136.32S7.29 123.559 21.703 71.054a44.17 44.17 0 0120.198-26.061l43.341-26.001c5.983-3.6 13.739-1.855 17.604 3.959l37.547 56.371 31.514 47.266c3.774 5.707 2.534 13.356-2.85 17.579l-38.801 30.182c-11.808 9.029-15.18 25.366-7.91 38.332l3.081 5.598c10.906 20.002 24.465 44.885 73.967 94.379 49.502 49.493 74.377 63.053 94.37 73.958l5.606 3.089c12.965 7.269 29.303 3.898 38.332-7.91l30.182-38.801c4.224-5.381 11.87-6.62 17.579-2.85l103.637 69.12c5.818 3.862 7.563 11.622 3.958 17.604zM290.161 85.39c80.081.089 144.977 64.986 145.067 145.067 0 4.713 3.82 8.533 8.533 8.533s8.533-3.82 8.533-8.533c-.099-89.503-72.63-162.035-162.133-162.133-4.713 0-8.533 3.82-8.533 8.533s3.82 8.533 8.533 8.533z"/><path d="M290.161 136.59c51.816.061 93.806 42.051 93.867 93.867a8.533 8.533 0 0017.066 0c-.071-61.238-49.696-110.863-110.933-110.933-4.713 0-8.533 3.82-8.533 8.533s3.82 8.533 8.533 8.533z"/><path d="M290.161 187.79c23.552.028 42.638 19.114 42.667 42.667a8.533 8.533 0 0017.066 0c-.038-32.974-26.759-59.696-59.733-59.733-4.713 0-8.533 3.82-8.533 8.533s3.82 8.533 8.533 8.533z"/></symbol><symbol viewBox="0 0 514.501 514.501" id="contact" xmlns="http://www.w3.org/2000/svg"><path d="M95.893 405.842c5.279 0 9.343 4.274 9.075 9.553l-2.248 44.198c-.487 9.639 2.831 18.714 9.343 25.57 6.512 6.837 15.405 10.604 25.054 10.604h179.688c5.278 0 12.853 2.773 17.299 5.633 12.852 8.252 28.247 13.101 44.762 13.101 45.805 0 83.079-37.274 83.079-83.079 0-23.056-9.457-43.883-24.671-58.943-3.759-3.72-8.138-10.5-9.343-15.645-2.238-9.591-5.021-21.448-8.473-36.137-11.188-47.545-48.1-70.342-72.952-80.573-4.887-2.008-5.823-6.283-2.257-10.175 22.434-24.432 36.204-56.925 36.204-92.641C380.454 61.592 318.861 0 243.146 0 167.43 0 105.838 61.592 105.838 137.308c0 35.438 13.55 67.722 35.678 92.096 3.547 3.911 2.582 8.167-2.324 10.127-24.853 9.944-62.998 32.742-74.387 81.166a18071.75 18071.75 0 00-11.322 48.357c-2.237 9.62-.392 18.791 5.202 25.81 5.604 7.058 14.152 10.968 24.079 10.968h13.129v.01zm347.232 25.59c0 35.429-28.831 64.27-64.27 64.27s-64.27-28.841-64.27-64.27c0-35.448 28.831-64.27 64.27-64.27s64.27 28.821 64.27 64.27zM243.136 14.354c67.807 0 122.964 55.175 122.964 122.964 0 2.716-.115 5.394-.325 8.042-.345 4.437-5.135 7.793-10.347 6.904-38.021-6.521-59.097-35.85-68.726-54.229-3.624-6.914-8.281-10.643-13.837-11.054-5.642-.392-10.854 2.668-15.548 9.094-30.705 42.018-95.147 53.378-126.474 56.448-5.259.516-10.031-2.783-10.366-7.201a105.793 105.793 0 01-.315-8.013c.01-67.78 55.167-122.955 122.974-122.955zM133.617 166.76c34.033-3.366 101.449-15.874 135.3-62.204.487-.669.937-1.205 1.319-1.635.774-.86 2.181-.803 2.782.105.307.459.642 1.023.995 1.702 10.939 20.875 34.912 54.2 78.68 61.716 5.202.899 8.463 5.345 6.771 10.347a123.221 123.221 0 01-31.25 49.237c-3.806 3.663-7.306 6.321-7.507 6.292a.384.384 0 00-.439.316c-.039.21-3.386 3.107-7.736 6.101-19.766 13.589-43.662 21.573-69.404 21.573-54.009 0-99.88-35.047-116.337-83.576-1.685-5.02 1.576-9.457 6.826-9.974zm95.414 107.072c4.638.516 9.333.803 14.105.803 4.026 0 7.994-.22 11.915-.603 5.259-.516 7.803 2.716 5.737 7.574l-14.917 35.084c-2.065 4.858-5.422 4.858-7.487 0l-15.071-35.429c-2.065-4.847.469-8.013 5.718-7.429zm-6.292 65.206h-55.5c-5.288 0-9.467-1.778-11.762-4.973-2.295-3.213-2.629-7.735-.937-12.736l18.657-55.138c1.692-5.001 6.789-6.924 11.551-4.647a132.324 132.324 0 008.511 3.7c4.915 1.941 10.681 7.125 12.756 11.992l22.548 52.995c2.056 4.858-.545 8.807-5.824 8.807zm68.066-73.01a136.853 136.853 0 008.94-3.643c4.819-2.171 9.945-.182 11.638 4.819l18.312 54.124c1.692 5.001 1.357 9.523-.938 12.736-2.295 3.194-6.474 4.973-11.762 4.973h-55.501c-5.278 0-7.889-3.939-5.813-8.797l22.29-52.402c2.076-4.867 7.88-9.983 12.834-11.81zM78.757 323.996c11.188-47.573 52.794-67.08 73.43-73.966 5.011-1.673 9.716-2.247 10.385-1.74s-.144 4.954-1.836 9.955l-19.785 58.475c-3.213 9.505-2.189 18.637 2.869 25.685 5.068 7.058 13.378 10.959 23.419 10.959h149.767c10.03 0 18.35-3.901 23.418-10.959 5.068-7.038 6.092-16.17 2.869-25.685l-19.374-57.261c-1.692-5.001-2.257-9.629-1.281-10.365.976-.746 5.919-.277 10.911 1.453 21.085 7.306 61.009 26.985 71.938 73.431 1.97 8.386 3.71 15.816 5.269 22.453 1.205 5.145-1.702 7.496-6.731 5.871a82.026 82.026 0 00-25.169-3.949c-45.804 0-83.079 37.255-83.079 83.079 0 15.366 4.246 29.72 11.562 42.065 2.696 4.542 1.052 7.937-4.227 7.937H137.107c-5.67 0-10.882-2.189-14.659-6.148-3.768-3.979-5.689-9.305-5.403-14.966l3.012-59.269c.268-5.278-3.796-9.553-9.075-9.553H82.744c-5.451 0-10.012-1.96-12.842-5.527-2.812-3.547-3.691-8.386-2.467-13.654 2.601-11.171 6.244-26.71 11.322-48.321z"/><path d="M369.457 412.449c0 5.279-4.284 9.562-9.562 9.562h-14.736c-5.183 0-9.409 4.218-9.409 9.41 0 5.173 4.217 9.391 9.409 9.391h14.736c5.278 0 9.562 4.283 9.562 9.562v14.735c0 5.192 4.217 9.409 9.399 9.409 5.184 0 9.4-4.217 9.4-9.409v-14.727c0-5.278 4.284-9.562 9.562-9.562h14.735c5.184 0 9.41-4.217 9.41-9.39 0-5.192-4.218-9.41-9.41-9.41h-14.735c-5.278 0-9.562-4.284-9.562-9.562v-14.735c0-5.174-4.217-9.391-9.4-9.391-5.183 0-9.399 4.217-9.399 9.391v14.726z"/></symbol><symbol viewBox="0 0 512 512" id="envelope" xmlns="http://www.w3.org/2000/svg"><path d="M469.333 64H42.667C19.135 64 0 83.135 0 106.667v298.667C0 428.865 19.135 448 42.667 448h426.667C492.865 448 512 428.865 512 405.333V106.667C512 83.135 492.865 64 469.333 64zM42.667 85.333h426.667c1.572 0 2.957.573 4.432.897-36.939 33.807-159.423 145.859-202.286 184.478-3.354 3.021-8.76 6.625-15.479 6.625s-12.125-3.604-15.49-6.635C197.652 232.085 75.161 120.027 38.228 86.232c1.478-.324 2.866-.899 4.439-.899zm-21.334 320V106.667c0-2.09.63-3.986 1.194-5.896 28.272 25.876 113.736 104.06 169.152 154.453C136.443 302.671 50.957 383.719 22.46 410.893c-.503-1.814-1.127-3.588-1.127-5.56zm448 21.334H42.667c-1.704 0-3.219-.594-4.81-.974 29.447-28.072 115.477-109.586 169.742-156.009a7980.773 7980.773 0 0018.63 16.858c8.792 7.938 19.083 12.125 29.771 12.125s20.979-4.188 29.76-12.115a8178.815 8178.815 0 0018.641-16.868c54.268 46.418 140.286 127.926 169.742 156.009-1.591.38-3.104.974-4.81.974zm21.334-21.334c0 1.971-.624 3.746-1.126 5.56-28.508-27.188-113.984-108.227-169.219-155.668 55.418-50.393 140.869-128.57 169.151-154.456.564 1.91 1.194 3.807 1.194 5.897v298.667z"/></symbol><symbol viewBox="0 0 485.213 485.213" id="magnifier-tool" xmlns="http://www.w3.org/2000/svg"><path d="M363.909 181.955C363.909 81.473 282.44 0 181.956 0 81.474 0 .001 81.473.001 181.955s81.473 181.951 181.955 181.951c100.484 0 181.953-81.469 181.953-181.951zM181.956 318.416c-75.252 0-136.465-61.208-136.465-136.46 0-75.252 61.213-136.465 136.465-136.465 75.25 0 136.468 61.213 136.468 136.465 0 75.252-61.218 136.46-136.468 136.46zm289.926 89.151L360.567 296.243a214.267 214.267 0 01-64.331 64.321L407.56 471.888c17.772 17.768 46.587 17.768 64.321 0 17.773-17.739 17.773-46.554.001-64.321z"/></symbol><symbol viewBox="0 0 60 60" id="placeholder" xmlns="http://www.w3.org/2000/svg"><path d="M42.117 43.007a1 1 0 00-.234 1.986C52.399 46.231 58 49.567 58 51.5c0 2.714-10.652 6.5-28 6.5S2 54.214 2 51.5c0-1.933 5.601-5.269 16.117-6.507a1 1 0 00-.234-1.986C7.354 44.247 0 47.739 0 51.5 0 55.724 10.305 60 30 60s30-4.276 30-8.5c0-3.761-7.354-7.253-17.883-8.493z"/><path d="M29.823 54.757L45.164 32.6c5.754-7.671 4.922-20.28-1.781-26.982C39.761 1.995 34.945 0 29.823 0s-9.938 1.995-13.56 5.617c-6.703 6.702-7.535 19.311-1.804 26.952l15.364 22.188zM30 12c3.86 0 7 3.141 7 7s-3.14 7-7 7-7-3.141-7-7 3.14-7 7-7z"/></symbol><symbol viewBox="0 0 2138.327 2138.327" id="shopping-cart" xmlns="http://www.w3.org/2000/svg"><path d="M1032.925 1852.654c0 98.076-79.506 177.583-177.583 177.583S677.76 1950.73 677.76 1852.654s79.506-177.583 177.583-177.583 177.582 79.507 177.582 177.583zm541.462-177.582c-98.076 0-177.583 79.507-177.583 177.583s79.507 177.583 177.583 177.583 177.583-79.507 177.583-177.583c-.001-98.077-79.507-177.583-177.583-177.583zm551.232-833.649l-218.512 649.464s-18.088 96.383-110.247 96.383H693.471c-109.982 0-114.604-120.809-114.604-120.809S461.624 596.637 455.814 544.088s-73.013-91.498-73.013-91.498L93.651 317.522c-158.306-82.784-86.349-240.298 0-204.121 366.652 172.961 536.973 258.122 547.932 326.25 11.091 68.26 30.367 232.64 30.367 232.64v1.056c2.245-.66 3.829-1.056 3.829-1.056h1351.477c163.191 0 98.363 169.397 98.363 169.132zm-316.084 361.635l-2.245.132H737.57L759.619 1378h997.896l52.02-174.942zm104.173-352.524H693.339l23.502 186.825h1141.678l55.189-186.825z"/></symbol><symbol viewBox="0 0 497.208 497.208" id="warranty-contract" xmlns="http://www.w3.org/2000/svg"><path d="M466.292 240c-33.44 0-64.48-16.608-83.032-44.44l-6.656-9.984-6.656 9.984C351.396 223.392 320.356 240 286.916 240h-30.312v128.288c0 31.008 13.96 60.152 37.288 79.712H128.604v-32h104V272h-168v64h-48V16h352v144h16V0h-384v347.312L117.292 464h201.192l58.12 33.208 67.6-38.624c32.32-18.464 52.4-53.072 52.4-90.296V240h-30.312zM112.604 436.688L27.916 352h84.688v84.688zM80.604 336v-48h136v112h-88v-64h-48zm400 32.288c0 31.504-16.992 60.776-44.336 76.408l-59.664 34.096-59.664-34.096c-27.344-15.632-44.336-44.904-44.336-76.408V256h14.312c35.04 0 67.808-15.72 89.688-42.544C398.484 240.28 431.252 256 466.292 256h14.312v112.288z"/><path d="M448.604 320v48.288c0 20.048-10.816 38.68-28.216 48.624l7.936 13.888c22.376-12.784 36.28-36.736 36.28-62.512V320h-16zm-400-288v48h288V32h-288zm272 32h-256V48h256v16zm122.344 210.344L336.604 380.688l-26.344-26.344-11.312 11.312 37.656 37.656L454.26 285.656zM96.604 304h104v16h-104zm48 32h56v16h-56zm0 32h56v16h-56zm-96-256h256v16h-256zm0 32h256v16h-256zm0 32h256v16h-256zm0 32h152v16h-152zm0 32h152v16h-152zm272-128h16v16h-16zm0 32h16v16h-16zm0 32h16v16h-16zm-104 32h16v16h-16zm0 32h16v16h-16z"/></symbol><symbol viewBox="-3 0 512 512" id="warranty-label" xmlns="http://www.w3.org/2000/svg"><path d="M459.191 206.203C459.191 92.5 366.687 0 252.981 0 139.276 0 46.772 92.5 46.772 206.203c0 113.7 92.504 206.2 206.207 206.2 113.707 0 206.211-92.5 206.211-206.2zm-242.968 87.961l-70.403-70.402 21.34-21.336 49.063 49.062L338.805 128.91l21.34 21.336zM62.422 345.875L0 436.918l92.29-17.211L109.5 512l58.453-85.254C125.516 410.328 88.97 382 62.422 345.875zm381.121 0c-26.547 36.125-63.094 64.453-105.531 80.871L396.465 512l17.21-92.293 92.29 17.211zm0 0"/></symbol><symbol viewBox="0 0 612 612" id="world" xmlns="http://www.w3.org/2000/svg"><path d="M550.4 281.817c-18.385 20.637-36.395 42.868-48.965 73.54-5.721 14.164-19.322 23.357-34.613 23.357-15.383 0-28.984-9.193-34.799-23.45-14.541-35.646-36.584-59.939-57.971-83.39-5.346-5.909-10.693-11.819-15.945-17.916-.281.094-.471.188-.75.281-20.824 6.284-36.865 33.862-27.203 56.281 6.566 15.383 52.623 12.476 48.684 45.587-3.283 27.108 32.172 34.237 44.742 32.925 12.57-1.501 31.893 20.637 22.137 30.392-9.66 9.756-27.953 10.131-25.139 35.27.75 7.316 22.889 6.379 22.889 17.447 0 11.162-11.443 23.826-2.627 36.677 1.877 2.813 3.846 4.971 5.91 6.659-42.398 39.022-98.961 62.941-160.964 62.941-131.041 0-237.6-106.559-237.6-237.6 0-39.771 9.85-77.293 27.203-110.311-.094 42.68 22.7 78.137 33.393 88.83 34.894 34.8 85.454 23.825 91.925 52.997 6.566 29.079-34.707 29.173-31.986 51.403 2.813 22.325 56.562 28.235 44.556 48.777-15.853 27.296 10.693 29.266 3.002 62.94-4.127 18.386 22.418 21.95 32.268 7.974 7.504-10.693 6.003-23.826 21.105-39.865 18.479-19.699 61.347-22.888 56.562-55.438-8.16-54.029-60.689-62.472-83.577-75.136-25.983-14.257-19.604-48.495-25.233-64.816-7.879-23.169-34.613 6.473-48.871-7.035-23.45-22.137 4.221-53.467 23.919-52.81 41.554 1.313 54.311 41.742 69.6 40.334 14.915-1.313 24.577-22.137 27.203-33.205 5.535-24.107-9.38-13.32-15.383-25.89-8.067-16.79 28.328-32.83 42.398-45.212 2.158-1.876 3.752-3.658 4.596-5.347 4.223-8.254-1.312-14.539-10.693-20.261-18.759-11.351-52.997-20.355-54.591-38.083-.939-10.882 19.886-16.134 43.617-17.072 3.939.188 7.785.563 11.726.938a158.516 158.516 0 019.473-32.643c-11.35-1.501-22.887-2.252-34.613-2.252-149.52 0-271.18 121.66-271.18 271.18C14.604 490.34 136.265 612 285.785 612s271.182-121.661 271.182-271.181c0-20.261-2.252-40.053-6.567-59.002zM454.062.603C377.51 7.839 325.078 82.016 338.439 157.741c13.568 76.921 84.49 100.598 119.686 186.942 3.172 7.781 14.127 7.82 17.297.038 39.016-95.766 121.975-114.455 121.975-214.106C597.396 54.282 531.916-6.756 454.062.603zm12.719 198.99c-38.096 0-68.979-30.882-68.979-68.978 0-38.095 30.883-68.977 68.979-68.977s68.977 30.882 68.977 68.977-30.883 68.978-68.977 68.978z"/></symbol></svg>